<svg t="1708511614871" class="icon" viewBox="0 0 1024 1024" version="1.1" xmlns="http://www.w3.org/2000/svg" p-id="5573" width="200" height="200"><path d="M640 672V256c0-17.7-14.3-32-32-32H32c-17.7 0-32 14.3-32 32v416c0 17.7 14.3 32 32 32h256v44.5c0 2.2-1.8 4-4 4H176c-8.8 0-16 7.2-16 16v32h320v-32c0-8.8-7.2-16-16-16H356c-2.2 0-4-1.8-4-4V704h256c17.7 0 32-14.3 32-32zM64 636V292c0-2.2 1.8-4 4-4h504c2.2 0 4 1.8 4 4v344c0 2.2-1.8 4-4 4H68c-2.2 0-4-1.8-4-4zM960 288v444c0 2.2-1.8 4-4 4H772c-2.2 0-4-1.8-4-4V292c0-2.2 1.8-4 4-4h188z m-224-64c-17.7 0-32 14.3-32 32v512c0 17.7 14.3 32 32 32h256c17.7 0 32-14.3 32-32V256c0-17.7-14.3-32-32-32H736z" fill="#1296db" p-id="5574"></path><path d="M920 384.5H808c-4.4 0-8-3.6-8-8v-48c0-4.4 3.6-8 8-8h112c4.4 0 8 3.6 8 8v48c0 4.4-3.6 8-8 8zM920 480.5H808c-4.4 0-8-3.6-8-8v-48c0-4.4 3.6-8 8-8h112c4.4 0 8 3.6 8 8v48c0 4.4-3.6 8-8 8zM864 704.5c-17.7 0-32-14.3-32-32s14.3-32 32-32 32 14.3 32 32-14.3 32-32 32z" p-id="5575"></path></svg>